<svg xmlns="http://www.w3.org/2000/svg" xmlns:xlink="http://www.w3.org/1999/xlink" width="120" height="196" viewBox="0 0 120 196"><defs><path id="z1mla" d="M1845.772 402.412v60.263"/><path id="z1mlb" d="M1844.179 288.195c.177-.177.53-.177.707 0l10.34 10.34c.177.178.177.531 0 .708l-10.34 10.34c-.177.177-.53.177-.707 0l-10.34-10.34c-.177-.177-.177-.53 0-.707z"/><path id="z1mlc" d="M1830.195 318.033c0-.5.5-1 1-1h29.247c.5 0 1 .5 1 1v9.16c0 .5-.5 1-1 1h-29.247c-.5 0-1-.5-1-1z"/><path id="z1mld" d="M1786 359.127c0-.5.5-1 1-1h29.247c.5 0 1 .5 1 1v9.16c0 .5-.5 1-1 1H1787c-.5 0-1-.5-1-1z"/><path id="z1mle" d="M1874.525 360.677c0-.5.5-1 1-1h29.247c.5 0 1 .5 1 1v9.16c0 .5-.5 1-1 1h-29.247c-.5 0-1-.5-1-1z"/><path id="z1mlf" d="M1830.33 393.242c0-.5.5-1 1-1h29.247c.5 0 1 .5 1 1v9.16c0 .5-.5 1-1 1h-29.247c-.5 0-1-.5-1-1z"/><path id="z1mlg" d="M1830.33 428.836c0-2.79 2.79-5.58 5.58-5.58h20.087c2.79 0 5.58 2.79 5.58 5.58s-2.79 5.58-5.58 5.58h-20.087c-2.79 0-5.58-2.79-5.58-5.58z"/><path id="z1mlh" d="M1833.484 339.503c0-1 1-2 2-2h18.32c1 0 2 1 2 2v2.696c0 1-1 2-2 2h-18.32c-1 0-2-1-2-2z"/><path id="z1mli" d="M1830.195 269.523c0-1 1-2 2-2h27.247c1 0 2 1 2 2v7.16c0 1-1 2-2 2h-27.247c-1 0-2-1-2-2z"/><path id="z1mlj" d="M1842.97 344.2v7.833h-41.265v5.588"/><path id="z1mlk" d="M1842.8 344.2v7.833h41.263v5.588"/><path id="z1mll" d="M1801.705 369.287v4.768H1845.09v18.57"/></defs><g><g opacity=".62" transform="translate(-1786 -267)"><use fill="#fff" fill-opacity="0" stroke="#eef1f8" stroke-miterlimit="50" stroke-width="3" xlink:href="#z1mla"/></g><g opacity=".62" transform="translate(-1786 -267)"><use fill="#eef1f8" xlink:href="#z1mlb"/></g><g opacity=".62" transform="translate(-1786 -267)"><use fill="#eef1f8" xlink:href="#z1mlc"/></g><g opacity=".62" transform="translate(-1786 -267)"><use fill="#eef1f8" xlink:href="#z1mld"/></g><g opacity=".62" transform="translate(-1786 -267)"><use fill="#eef1f8" xlink:href="#z1mle"/></g><g opacity=".62" transform="translate(-1786 -267)"><use fill="#eef1f8" xlink:href="#z1mlf"/></g><g opacity=".62" transform="translate(-1786 -267)"><use fill="#eef1f8" xlink:href="#z1mlg"/></g><g opacity=".62" transform="translate(-1786 -267)"><use fill="#eef1f8" xlink:href="#z1mlh"/></g><g opacity=".62" transform="translate(-1786 -267)"><use fill="#eef1f8" xlink:href="#z1mli"/></g><g opacity=".29" transform="translate(-1786 -267)"><use fill="#fff" fill-opacity="0" stroke="#707070" stroke-miterlimit="50" xlink:href="#z1mlj"/></g><g opacity=".29" transform="translate(-1786 -267)"><use fill="#fff" fill-opacity="0" stroke="#707070" stroke-miterlimit="50" xlink:href="#z1mlk"/></g><g opacity=".29" transform="translate(-1786 -267)"><use fill="#fff" fill-opacity="0" stroke="#707070" stroke-miterlimit="50" xlink:href="#z1mll"/></g></g></svg>