<svg xmlns="http://www.w3.org/2000/svg" xmlns:xlink="http://www.w3.org/1999/xlink" width="130" height="129" viewBox="0 0 130 129"><defs><path id="5scpa" d="M170.306 160.066c4.25-7.36 15.862-10.472 23.223-6.222l49.452 28.551c7.361 4.25 10.473 15.862 6.223 23.223l-27.376 47.416c-4.25 7.36-15.861 10.472-23.222 6.222l-49.453-28.551c-7.36-4.25-10.472-15.861-6.222-23.223z"/><path id="5scpe" d="M181.607 164.948a2.393 2.393 0 1 1 4.145 2.393 2.393 2.393 0 0 1-4.145-2.393z"/><path id="5scpf" d="M187.392 168.288a2.393 2.393 0 1 1 4.145 2.393 2.393 2.393 0 0 1-4.145-2.393z"/><path id="5scpg" d="M193.177 171.628a2.393 2.393 0 1 1 4.145 2.393 2.393 2.393 0 0 1-4.145-2.393z"/><path id="5scph" d="M204.812 196.115l24.486 14.137"/><path id="5scpi" d="M200.063 204.342l13.603 7.853"/><path id="5scpj" d="M219.107 215.337l9.522 5.497"/><path id="5scpk" d="M196.105 211.197l8.162 4.712"/><path id="5scpl" d="M209.708 219.05l14.963 8.64"/><path id="5scpm" d="M191.355 219.423l14.964 8.64"/><path id="5scpn" d="M199.64 233.347l14.964 8.639"/><path id="5scpo" d="M162.002 212.147c.25-.433.933-.616 1.367-.366l9.289 5.363c.433.25.616.933.366 1.366l-1.273 2.204c-.25.433-.933.616-1.366.366l-9.289-5.363c-.433-.25-.616-.933-.366-1.366z"/><path id="5scpp" d="M158.812 220.351c.341-.59 1.273-.84 1.863-.499l5.51 3.182c.591.34.84 1.272.5 1.862-.341.59-1.273.84-1.863.5l-5.51-3.182c-.59-.34-.84-1.272-.5-1.863z"/><path id="5scpq" d="M171.584 195.55c.5-.866 1.866-1.232 2.732-.732l7.558 4.364c.866.5 1.232 1.866.732 2.732l-.273.472c-.5.866-1.866 1.232-2.732.732l-7.557-4.363c-.866-.5-1.232-1.866-.732-2.732z"/><mask id="5scpc" width="2" height="2" x="-1" y="-1"><path fill="#fff" d="M141 151h111v111H141z"/><use xlink:href="#5scpa"/></mask><filter id="5scpb" width="155" height="158" x="119" y="129" filterUnits="userSpaceOnUse"><feOffset dy="3" in="SourceGraphic" result="FeOffset1230Out"/><feGaussianBlur in="FeOffset1230Out" result="FeGaussianBlur1231Out" stdDeviation="4.8 4.8"/></filter><clipPath id="5scpd"><use fill="#fff" xlink:href="#5scpa"/></clipPath></defs><g><g transform="translate(-131 -145)"><g filter="url(#5scpb)"><use fill="none" stroke-opacity=".28" stroke-width="0" mask="url(&quot;#5scpc&quot;)" xlink:href="#5scpa"/><use fill="#6320ee" fill-opacity=".28" xlink:href="#5scpa"/></g><use fill="#404d6f" xlink:href="#5scpa"/><use fill="#fff" fill-opacity="0" stroke="#fff" stroke-miterlimit="50" stroke-width="8" clip-path="url(&quot;#5scpd&quot;)" xlink:href="#5scpa"/></g><g transform="translate(-131 -145)"><use fill="#eef1f8" xlink:href="#5scpe"/></g><g transform="translate(-131 -145)"><use fill="#eef1f8" xlink:href="#5scpf"/></g><g transform="translate(-131 -145)"><use fill="#eef1f8" xlink:href="#5scpg"/></g><g transform="translate(-131 -145)"><g><text dominant-baseline="text-before-edge" style="font-kerning:normal" fill="#eef1f8" font-family="'Rajdhani','Rajdhani-SemiBold'" font-size="10" letter-spacing=".12" transform="translate(172 170)"><tspan>&lt;/&gt;</tspan></text></g></g><g transform="translate(-131 -145)"><use fill="#fff" fill-opacity="0" stroke="#eef1f8" stroke-linecap="round" stroke-miterlimit="50" stroke-width="2" xlink:href="#5scph"/></g><g transform="translate(-131 -145)"><use fill="#fff" fill-opacity="0" stroke="#eef1f8" stroke-linecap="round" stroke-miterlimit="50" stroke-width="2" xlink:href="#5scpi"/></g><g transform="translate(-131 -145)"><use fill="#fff" fill-opacity="0" stroke="#eef1f8" stroke-linecap="round" stroke-miterlimit="50" stroke-width="2" xlink:href="#5scpj"/></g><g transform="translate(-131 -145)"><use fill="#fff" fill-opacity="0" stroke="#eef1f8" stroke-linecap="round" stroke-miterlimit="50" stroke-width="2" xlink:href="#5scpk"/></g><g transform="translate(-131 -145)"><use fill="#fff" fill-opacity="0" stroke="#eef1f8" stroke-linecap="round" stroke-miterlimit="50" stroke-width="2" xlink:href="#5scpl"/></g><g transform="translate(-131 -145)"><use fill="#fff" fill-opacity="0" stroke="#eef1f8" stroke-linecap="round" stroke-miterlimit="50" stroke-width="2" xlink:href="#5scpm"/></g><g transform="translate(-131 -145)"><use fill="#fff" fill-opacity="0" stroke="#eef1f8" stroke-linecap="round" stroke-miterlimit="50" stroke-width="2" xlink:href="#5scpn"/></g><g transform="translate(-131 -145)"><use fill="#eef1f8" xlink:href="#5scpo"/></g><g transform="translate(-131 -145)"><use fill="#eef1f8" xlink:href="#5scpp"/></g><g transform="translate(-131 -145)"><use fill="#eef1f8" xlink:href="#5scpq"/></g></g></svg>