<svg xmlns="http://www.w3.org/2000/svg" xmlns:xlink="http://www.w3.org/1999/xlink" width="91" height="91" viewBox="0 0 91 91"><defs><path id="4jota" d="M43 130.486V126h4.486v4.486z"/><path id="4jotb" d="M43 147.789v-4.486h4.486v4.486z"/><path id="4jotc" d="M43 165.092v-4.486h4.486v4.486z"/><path id="4jotd" d="M60.303 165.092v-4.486h4.486v4.486z"/><path id="4jote" d="M77.606 165.092v-4.486h4.486v4.486z"/><path id="4jotf" d="M77.606 182.394v-4.486h4.486v4.486z"/><path id="4jotg" d="M94.908 165.092v-4.486h4.486v4.486z"/><path id="4joth" d="M43 182.394v-4.486h4.486v4.486z"/><path id="4joti" d="M60.303 182.394v-4.486h4.486v4.486z"/><path id="4jotj" d="M60.303 199.697v-4.486h4.486v4.486z"/><path id="4jotk" d="M43 199.697v-4.486h4.486v4.486z"/><path id="4jotl" d="M43 217v-4.486h4.486V217z"/><path id="4jotm" d="M60.303 130.486V126h4.486v4.486z"/><path id="4jotn" d="M60.303 147.789v-4.486h4.486v4.486z"/><path id="4joto" d="M77.606 130.486V126h4.486v4.486z"/><path id="4jotp" d="M77.606 147.789v-4.486h4.486v4.486z"/><path id="4jotq" d="M94.908 130.486V126h4.486v4.486z"/><path id="4jotr" d="M94.908 147.789v-4.486h4.486v4.486z"/><path id="4jots" d="M112.211 130.486V126h4.486v4.486z"/><path id="4jott" d="M112.211 147.789v-4.486h4.486v4.486z"/><path id="4jotu" d="M129.514 130.486V126H134v4.486z"/></defs><g><g opacity=".55" transform="translate(-43 -126)"><use fill="#fff" xlink:href="#4jota"/></g><g opacity=".55" transform="translate(-43 -126)"><use fill="#fff" xlink:href="#4jotb"/></g><g opacity=".55" transform="translate(-43 -126)"><use fill="#fff" xlink:href="#4jotc"/></g><g opacity=".55" transform="translate(-43 -126)"><use fill="#fff" xlink:href="#4jotd"/></g><g opacity=".55" transform="translate(-43 -126)"><use fill="#fff" xlink:href="#4jote"/></g><g opacity=".55" transform="translate(-43 -126)"><use fill="#fff" xlink:href="#4jotf"/></g><g opacity=".55" transform="translate(-43 -126)"><use fill="#fff" xlink:href="#4jotg"/></g><g opacity=".55" transform="translate(-43 -126)"><use fill="#fff" xlink:href="#4joth"/></g><g opacity=".55" transform="translate(-43 -126)"><use fill="#fff" xlink:href="#4joti"/></g><g opacity=".55" transform="translate(-43 -126)"><use fill="#fff" xlink:href="#4jotj"/></g><g opacity=".55" transform="translate(-43 -126)"><use fill="#fff" xlink:href="#4jotk"/></g><g opacity=".55" transform="translate(-43 -126)"><use fill="#fff" xlink:href="#4jotl"/></g><g opacity=".55" transform="translate(-43 -126)"><use fill="#fff" xlink:href="#4jotm"/></g><g opacity=".55" transform="translate(-43 -126)"><use fill="#fff" xlink:href="#4jotn"/></g><g opacity=".55" transform="translate(-43 -126)"><use fill="#fff" xlink:href="#4joto"/></g><g opacity=".55" transform="translate(-43 -126)"><use fill="#fff" xlink:href="#4jotp"/></g><g opacity=".55" transform="translate(-43 -126)"><use fill="#fff" xlink:href="#4jotq"/></g><g opacity=".55" transform="translate(-43 -126)"><use fill="#fff" xlink:href="#4jotr"/></g><g opacity=".55" transform="translate(-43 -126)"><use fill="#fff" xlink:href="#4jots"/></g><g opacity=".55" transform="translate(-43 -126)"><use fill="#fff" xlink:href="#4jott"/></g><g opacity=".55" transform="translate(-43 -126)"><use fill="#fff" xlink:href="#4jotu"/></g></g></svg>