<svg xmlns="http://www.w3.org/2000/svg" xmlns:xlink="http://www.w3.org/1999/xlink" width="141" height="129" viewBox="0 0 141 129"><defs><path id="1hgva" d="M170.306 160.066c4.25-7.36 15.862-10.472 23.223-6.222l49.452 28.551c7.361 4.25 10.473 15.862 6.223 23.223l-27.376 47.416c-4.25 7.36-15.861 10.472-23.222 6.222l-49.453-28.551c-7.36-4.25-10.472-15.861-6.222-23.223z"/><path id="1hgvb" d="M235.064 183.842c4.764-8.251 15.314-11.078 23.565-6.315 8.25 4.764 11.078 15.314 6.314 23.565-4.764 8.251-15.314 11.078-23.565 6.314-8.25-4.763-11.078-15.314-6.314-23.564z"/><path id="1hgvf" d="M181.607 164.948a2.393 2.393 0 1 1 4.145 2.393 2.393 2.393 0 0 1-4.145-2.393z"/><path id="1hgvg" d="M187.392 168.288a2.393 2.393 0 1 1 4.145 2.393 2.393 2.393 0 0 1-4.145-2.393z"/><path id="1hgvh" d="M193.177 171.628a2.393 2.393 0 1 1 4.145 2.393 2.393 2.393 0 0 1-4.145-2.393z"/><path id="1hgvi" d="M204.812 196.115l24.486 14.137"/><path id="1hgvj" d="M200.063 204.342l13.603 7.853"/><path id="1hgvk" d="M219.107 215.337l9.522 5.497"/><path id="1hgvl" d="M196.105 211.197l8.162 4.712"/><path id="1hgvm" d="M213.12 231.989l2.72 1.57"/><path id="1hgvn" d="M205.146 245.802l2.72 1.57"/><path id="1hgvo" d="M209.708 219.05l14.963 8.64"/><path id="1hgvp" d="M191.355 219.423l14.964 8.64"/><path id="1hgvq" d="M199.64 233.347l14.964 8.639"/><path id="1hgvr" d="M183.38 233.236l14.964 8.639"/><path id="1hgvs" d="M173.02 204.034c.242-.065.549.112.613.353l1.388 5.18c.065.242-.112.548-.353.613l-5.18 1.388c-.242.065-.548-.112-.613-.353l-1.388-5.18c-.065-.242.112-.548.353-.613z"/><path id="1hgvt" d="M162.002 212.147c.25-.433.933-.616 1.367-.366l9.289 5.363c.433.25.616.933.366 1.366l-1.273 2.204c-.25.433-.933.616-1.366.366l-9.289-5.363c-.433-.25-.616-.933-.366-1.366z"/><path id="1hgvu" d="M158.812 220.351c.341-.59 1.273-.84 1.863-.499l5.51 3.182c.591.34.84 1.272.5 1.862-.341.59-1.273.84-1.863.5l-5.51-3.182c-.59-.34-.84-1.272-.5-1.863z"/><path id="1hgvv" d="M171.584 195.55c.5-.866 1.866-1.232 2.732-.732l7.558 4.364c.866.5 1.232 1.866.732 2.732l-.273.472c-.5.866-1.866 1.232-2.732.732l-7.557-4.363c-.866-.5-1.232-1.866-.732-2.732z"/><path id="1hgvw" d="M199.471 178.084l38.172 22.038"/><path id="1hgvz" d="M253.66 194.329l-3.177-7.437-4.852 8.404zm-12.037.147c-.632-2.357-.354-4.562.778-6.523 1.132-1.96 2.903-3.304 5.26-3.935 2.263-.685 4.468-.408 6.522.778 1.961 1.132 3.304 2.903 3.935 5.26.686 2.263.408 4.468-.778 6.522-1.132 1.961-2.903 3.304-5.26 3.935-2.263.686-4.468.408-6.522-.778-1.96-1.132-3.304-2.903-3.935-5.26zm-.996-7.547c-1.51 2.614-1.91 5.247-1.12 8.192.843 2.853 2.452 5.026 5.066 6.536 2.615 1.51 5.247 1.909 8.193 1.12 2.852-.844 5.026-2.452 6.535-5.067 1.51-2.614 1.91-5.247 1.12-8.192-.843-2.853-2.545-5.08-5.066-6.536-2.615-1.509-5.247-1.909-8.193-1.12-2.892.697-5.026 2.452-6.535 5.067z"/><mask id="1hgvd" width="2" height="2" x="-1" y="-1"><path fill="#fff" d="M141 151h111v111H141z"/><use xlink:href="#1hgva"/></mask><filter id="1hgvc" width="155" height="158" x="119" y="129" filterUnits="userSpaceOnUse"><feOffset dy="3" in="SourceGraphic" result="FeOffset1051Out"/><feGaussianBlur in="FeOffset1051Out" result="FeGaussianBlur1052Out" stdDeviation="4.8 4.8"/></filter><clipPath id="1hgve"><use fill="#fff" xlink:href="#1hgva"/></clipPath><mask id="1hgvy" width="2" height="2" x="-1" y="-1"><path fill="#fff" d="M232 175h36v35h-36z"/><use xlink:href="#1hgvb"/></mask><filter id="1hgvx" width="68" height="70" x="216" y="159" filterUnits="userSpaceOnUse"><feOffset dy="3" in="SourceGraphic" result="FeOffset1165Out"/><feGaussianBlur in="FeOffset1165Out" result="FeGaussianBlur1166Out" stdDeviation="2.4 2.4"/></filter></defs><g><g transform="translate(-131 -145)"><g filter="url(#1hgvc)"><use fill="none" stroke-opacity=".28" stroke-width="0" mask="url(&quot;#1hgvd&quot;)" xlink:href="#1hgva"/><use fill="#6320ee" fill-opacity=".28" xlink:href="#1hgva"/></g><use fill="#404d6f" xlink:href="#1hgva"/><use fill="#fff" fill-opacity="0" stroke="#fff" stroke-miterlimit="50" stroke-width="8" clip-path="url(&quot;#1hgve&quot;)" xlink:href="#1hgva"/></g><g transform="translate(-131 -145)"><use fill="#eef1f8" xlink:href="#1hgvf"/></g><g transform="translate(-131 -145)"><use fill="#eef1f8" xlink:href="#1hgvg"/></g><g transform="translate(-131 -145)"><use fill="#eef1f8" xlink:href="#1hgvh"/></g><g transform="translate(-131 -145)"><g><text dominant-baseline="text-before-edge" style="font-kerning:normal" fill="#eef1f8" font-family="'Rajdhani','Rajdhani-SemiBold'" font-size="10" letter-spacing=".12" transform="translate(172 170)"><tspan>&lt;/&gt;</tspan></text></g></g><g transform="translate(-131 -145)"><use fill="#fff" fill-opacity="0" stroke="#eef1f8" stroke-linecap="round" stroke-miterlimit="50" stroke-width="2" xlink:href="#1hgvi"/></g><g transform="translate(-131 -145)"><use fill="#fff" fill-opacity="0" stroke="#eef1f8" stroke-linecap="round" stroke-miterlimit="50" stroke-width="2" xlink:href="#1hgvj"/></g><g transform="translate(-131 -145)"><use fill="#fff" fill-opacity="0" stroke="#eef1f8" stroke-linecap="round" stroke-miterlimit="50" stroke-width="2" xlink:href="#1hgvk"/></g><g transform="translate(-131 -145)"><use fill="#fff" fill-opacity="0" stroke="#eef1f8" stroke-linecap="round" stroke-miterlimit="50" stroke-width="2" xlink:href="#1hgvl"/></g><g transform="translate(-131 -145)"><use fill="#fff" fill-opacity="0" stroke="#eef1f8" stroke-linecap="round" stroke-miterlimit="50" stroke-width="2" xlink:href="#1hgvm"/></g><g transform="translate(-131 -145)"><use fill="#fff" fill-opacity="0" stroke="#eef1f8" stroke-linecap="round" stroke-miterlimit="50" stroke-width="2" xlink:href="#1hgvn"/></g><g transform="translate(-131 -145)"><use fill="#fff" fill-opacity="0" stroke="#eef1f8" stroke-linecap="round" stroke-miterlimit="50" stroke-width="2" xlink:href="#1hgvo"/></g><g transform="translate(-131 -145)"><use fill="#fff" fill-opacity="0" stroke="#eef1f8" stroke-linecap="round" stroke-miterlimit="50" stroke-width="2" xlink:href="#1hgvp"/></g><g transform="translate(-131 -145)"><use fill="#fff" fill-opacity="0" stroke="#eef1f8" stroke-linecap="round" stroke-miterlimit="50" stroke-width="2" xlink:href="#1hgvq"/></g><g transform="translate(-131 -145)"><use fill="#fff" fill-opacity="0" stroke="#eef1f8" stroke-linecap="round" stroke-miterlimit="50" stroke-width="2" xlink:href="#1hgvr"/></g><g transform="translate(-131 -145)"><use fill="#eef1f8" xlink:href="#1hgvs"/></g><g transform="translate(-131 -145)"><use fill="#eef1f8" xlink:href="#1hgvt"/></g><g transform="translate(-131 -145)"><use fill="#eef1f8" xlink:href="#1hgvu"/></g><g transform="translate(-131 -145)"><use fill="#eef1f8" xlink:href="#1hgvv"/></g><g transform="translate(-131 -145)"><use fill="#fff" fill-opacity="0" stroke="#eef1f8" stroke-miterlimit="50" stroke-width=".2" xlink:href="#1hgvw"/></g><g transform="translate(-131 -145)"><g filter="url(#1hgvx)"><use fill="none" stroke-opacity=".16" stroke-width="0" mask="url(&quot;#1hgvy&quot;)" xlink:href="#1hgvb"/><use fill-opacity=".16" xlink:href="#1hgvb"/></g><use fill="#fff" xlink:href="#1hgvb"/></g><g transform="translate(-131 -145)"><use xlink:href="#1hgvz"/></g></g></svg>